<svg width="221" height="140" viewBox="0 0 221 140" fill="none" xmlns="http://www.w3.org/2000/svg">
<path opacity="0.9" d="M2.23394 1.25525L1.23394 1.25525L1.23394 2.25525L1.23394 83.1276L1.23394 84.1276L2.23394 84.1276L33.1498 84.1276L12.1035 136.671L11.554 138.042L13.0318 138.042L61.6222 138.042L62.1708 138.042L62.4656 137.58L100.258 78.2735L100.415 78.0276L100.415 77.7361L100.415 2.25525L100.415 1.25525L99.4148 1.25525L2.23394 1.25525ZM121.011 1.25526L120.011 1.25526L120.011 2.25526L120.011 83.1276L120.011 84.1276L121.011 84.1276L151.926 84.1276L130.88 136.671L130.331 138.042L131.808 138.042L180.399 138.042L180.947 138.042L181.242 137.58L219.035 78.2735L219.191 78.0276L219.191 77.7361L219.191 2.25526L219.191 1.25526L218.191 1.25526L121.011 1.25526Z" stroke="white" stroke-width="2"/>
</svg>
