<svg width="81" height="72" viewBox="0 0 81 72" fill="none" xmlns="http://www.w3.org/2000/svg">
<path fill-rule="evenodd" clip-rule="evenodd" d="M34.436 70.5502C16.1207 69.8657 1.48281 54.8018 1.48281 36.3191C1.48281 17.4004 16.8194 2.06381 35.7381 2.06381C54.6568 2.06381 69.9934 17.4004 69.9934 36.3191C69.9934 45.9412 66.0263 54.6366 59.6383 60.8591L76.6041 70.5745H34.436V70.5502Z" fill="#B1F4FF"/>
<path d="M34.436 70.5502L34.4777 69.4339L35.553 69.4741V70.5502H34.436ZM59.6383 60.8591L59.0832 61.8284L57.7979 61.0924L58.8589 60.0589L59.6383 60.8591ZM76.6041 70.5745L77.1592 69.6052L80.8025 71.6915H76.6041V70.5745ZM34.436 70.5745V71.6915H33.3189V70.5745H34.436ZM2.59977 36.3191C2.59977 54.1989 16.7604 68.7718 34.4777 69.4339L34.3942 71.6664C15.4809 70.9596 0.365727 55.4048 0.365727 36.3191H2.59977ZM35.7381 3.18085C17.4363 3.18085 2.59977 18.0174 2.59977 36.3191H0.365727C0.365727 16.7835 16.2025 0.946806 35.7381 0.946806V3.18085ZM68.8764 36.3191C68.8764 18.0174 54.0398 3.18085 35.7381 3.18085V0.946806C55.2737 0.946806 71.1104 16.7835 71.1104 36.3191H68.8764ZM58.8589 60.0589C65.0398 54.0381 68.8764 45.6276 68.8764 36.3191H71.1104C71.1104 46.2547 67.0126 55.2352 60.4177 61.6592L58.8589 60.0589ZM76.049 71.5439L59.0832 61.8284L60.1934 59.8897L77.1592 69.6052L76.049 71.5439ZM34.436 69.4575H76.6041V71.6915H34.436V69.4575ZM35.553 70.5502V70.5745H33.3189V70.5502H35.553Z" fill="white"/>
</svg>
