<svg width="927" height="524" viewBox="0 0 927 524" fill="none" xmlns="http://www.w3.org/2000/svg">
<g opacity="0.6" filter="url(#filter0_f_1004_2974)">
<path d="M124.34 168.766C124.34 144.089 144.345 124.085 169.021 124.085H777.425C802.102 124.085 822.106 144.089 822.106 168.766V354.936C822.106 379.613 802.102 399.617 777.425 399.617H169.021C144.345 399.617 124.34 379.613 124.34 354.936V168.766Z" fill="white"/>
<path d="M124.34 168.766C124.34 144.089 144.345 124.085 169.021 124.085H777.425C802.102 124.085 822.106 144.089 822.106 168.766V354.936C822.106 379.613 802.102 399.617 777.425 399.617H169.021C144.345 399.617 124.34 379.613 124.34 354.936V168.766Z" fill="#7197C0"/>
</g>
<defs>
<filter id="filter0_f_1004_2974" x="0.723305" y="0.468056" width="945" height="522.766" filterUnits="userSpaceOnUse" color-interpolation-filters="sRGB">
<feFlood flood-opacity="0" result="BackgroundImageFix"/>
<feBlend mode="normal" in="SourceGraphic" in2="BackgroundImageFix" result="shape"/>
<feGaussianBlur stdDeviation="61.8085" result="effect1_foregroundBlur_1004_2974"/>
</filter>
</defs>
</svg>
