<svg width="157" height="141" viewBox="0 0 157 141" fill="none" xmlns="http://www.w3.org/2000/svg">
<path fill-rule="evenodd" clip-rule="evenodd" d="M89.4 139.036C126.031 137.668 155.306 107.54 155.306 70.5744C155.306 32.7371 124.633 2.06381 86.7958 2.06381C48.9584 2.06381 18.2852 32.7371 18.2852 70.5744C18.2852 89.8185 26.2195 107.209 38.9953 119.654L5.06383 139.085H86.7034C86.7342 139.085 86.765 139.085 86.7958 139.085C86.8266 139.085 86.8575 139.085 86.8883 139.085H89.4V139.036Z" fill="#B1F4FF"/>
<path d="M89.4 139.037L89.3583 137.92L88.283 137.96V139.037H89.4ZM38.9953 119.654L39.5504 120.624L40.8357 119.888L39.7747 118.854L38.9953 119.654ZM5.06384 139.085L4.50875 138.116L0.865413 140.202H5.06384V139.085ZM86.7034 139.085L86.705 137.968H86.7034V139.085ZM86.8883 139.085V137.968L86.8866 137.968L86.8883 139.085ZM89.4 139.085V140.202H90.5171V139.085H89.4ZM154.189 70.5745C154.189 106.937 125.391 136.574 89.3583 137.92L89.4418 140.153C126.67 138.761 156.423 108.143 156.423 70.5745H154.189ZM86.7958 3.18085C124.016 3.18085 154.189 33.354 154.189 70.5745H156.423C156.423 32.1202 125.25 0.946806 86.7958 0.946806V3.18085ZM19.4022 70.5745C19.4022 33.354 49.5754 3.18085 86.7958 3.18085V0.946806C48.3415 0.946806 17.1682 32.1202 17.1682 70.5745H19.4022ZM39.7747 118.854C27.2059 106.611 19.4022 89.5049 19.4022 70.5745H17.1682C17.1682 90.132 25.2332 107.808 38.2159 120.454L39.7747 118.854ZM5.61893 140.054L39.5504 120.624L38.4402 118.685L4.50875 138.116L5.61893 140.054ZM86.7034 137.968H5.06384V140.202H86.7034V137.968ZM86.7958 137.968C86.7654 137.968 86.7351 137.968 86.705 137.968L86.7017 140.202C86.7333 140.202 86.7647 140.202 86.7958 140.202V137.968ZM86.8866 137.968C86.8565 137.968 86.8263 137.968 86.7958 137.968V140.202C86.827 140.202 86.8584 140.202 86.8899 140.202L86.8866 137.968ZM89.4 137.968H86.8883V140.202H89.4V137.968ZM88.283 139.037V139.085H90.5171V139.037H88.283Z" fill="white"/>
</svg>
